# xmcd
#
# Track frame offsets:
#	150
#	22627
#	45269
#	70743
#	82426
#	109231
#	158082
#	173614
#	184147
#	200358
#	215779
#	236081
#
# Disc length: 3357 seconds
#
# Revision: 0
# Processed by: cddbd v1.5.1PL2 Copyright (c) Steve Scherf et al.
# Submitted via: dBpowerAMP V4.0
#
DISCID=9d0d1b0c
DTITLE=B.B. King - The Thrill Is Gone
DYEAR=2005
DGENRE=Blues
TTITLE0=The Thrill Is Gone LIVE
TTITLE1=Every Day I Have The Blues 
TTITLE2=Guess Who LIVE
TTITLE3=Payin The Cost To Be The Boss LIVE
TTITLE4=Sweet Little Angel LIVE
TTITLE5=BB's Theme LIVE
TTITLE6=Caldonia LIVE
TTITLE7=Why I Sing The Blues
TTITLE8=The Other Night Blues
TTITLE9=Walkin and Cryin
TTITLE10=Youv'e Done Lost Your Good Thing Now
TTITLE11=Long Nights LIVE
EXTD=
EXTT0=
EXTT1=
EXTT2=
EXTT3=
EXTT4=
EXTT5=
EXTT6=
EXTT7=
EXTT8=
EXTT9=
EXTT10=
EXTT11=
PLAYORDER=
